<svg width="30" height="30" viewBox="0 0 30 30" fill="none" xmlns="http://www.w3.org/2000/svg">
<path d="M13.4061 2.90773C14.1159 1.63544 14.4701 1 15.0007 1C15.5313 1 15.8855 1.63544 16.5953 2.90773L16.7773 3.23665C16.9803 3.59916 17.0811 3.77971 17.2379 3.89869C17.3947 4.01766 17.5907 4.06245 17.9828 4.15062L18.3384 4.2318C19.716 4.54253 20.4048 4.69929 20.5686 5.22556C20.7324 5.75183 20.2634 6.30189 19.324 7.39922L19.0804 7.68335C18.8144 7.99548 18.6814 8.15084 18.6212 8.34399C18.561 8.53714 18.5806 8.74569 18.6212 9.16139L18.6576 9.53929C18.8004 11.0047 18.8704 11.7368 18.442 12.0629C18.0136 12.389 17.3681 12.0909 16.0787 11.4974L15.7441 11.3435C15.3787 11.1755 15.1953 11.0915 15.0007 11.0915C14.8061 11.0915 14.6227 11.1755 14.2573 11.3435L13.9227 11.4974C12.6346 12.0923 11.9878 12.389 11.5594 12.0629C11.131 11.7368 11.201 11.0047 11.3438 9.5407L11.3802 9.16139C11.4208 8.74569 11.4404 8.53714 11.3802 8.34399C11.32 8.15084 11.187 7.99408 10.921 7.68335L10.6774 7.39922C9.73939 6.30189 9.26898 5.75183 9.43278 5.22556C9.59658 4.69929 10.2854 4.54253 11.663 4.2318L12.0186 4.15062C12.4106 4.06245 12.6066 4.01766 12.7635 3.89869C12.9203 3.77971 13.0211 3.59916 13.2227 3.23665L13.4061 2.90773ZM25.4029 8.95284C25.7585 8.316 25.9349 7.99827 26.2009 7.99827C26.4669 7.99827 26.6433 8.316 26.9989 8.95284L27.0899 9.1166C27.1907 9.29855 27.2411 9.38813 27.3195 9.44832C27.3979 9.5071 27.496 9.5295 27.692 9.57429L27.8698 9.61348C28.5586 9.77024 28.903 9.84722 28.9842 10.1118C29.0668 10.3749 28.8316 10.6492 28.3626 11.1979L28.2408 11.3393C28.1078 11.496 28.0406 11.5744 28.0112 11.671C27.9804 11.7661 27.9916 11.8711 28.0112 12.0797L28.0294 12.2686C28.0994 13.0006 28.1358 13.3674 27.9216 13.5297C27.7074 13.6921 27.3853 13.5437 26.7399 13.247L26.5719 13.17C26.3899 13.086 26.2975 13.044 26.2009 13.044C26.1029 13.044 26.0119 13.086 25.8285 13.17L25.6619 13.247C25.0179 13.5437 24.6959 13.6921 24.4803 13.5297C24.2661 13.3674 24.3011 13.0006 24.3725 12.2686L24.3907 12.0797C24.4103 11.8697 24.4215 11.7661 24.3907 11.671C24.3613 11.573 24.2941 11.496 24.1611 11.3393L24.0393 11.1979C23.5703 10.6492 23.3351 10.3749 23.4177 10.1118C23.4989 9.84722 23.8433 9.77024 24.5321 9.61348L24.7099 9.57429C24.9059 9.5295 25.0039 9.5071 25.0823 9.44832C25.1607 9.38813 25.2111 9.29715 25.3119 9.1166L25.4029 8.95284ZM3.00245 8.95284C3.35946 8.316 3.53446 7.99827 3.80047 7.99827C4.06647 7.99827 4.24287 8.316 4.59848 8.95284L4.68948 9.1166C4.79029 9.29855 4.84069 9.38813 4.91909 9.44832C4.99749 9.5071 5.09549 9.5295 5.2915 9.57429L5.4693 9.61348C6.15811 9.77024 6.50252 9.84722 6.58512 10.1118C6.66632 10.3749 6.43112 10.6492 5.96211 11.1979L5.84031 11.3393C5.7073 11.496 5.6401 11.5744 5.6107 11.671C5.5799 11.7661 5.5911 11.8711 5.6107 12.0797L5.6289 12.2686C5.6989 13.0006 5.73531 13.3674 5.5211 13.5297C5.3069 13.6921 4.98349 13.5437 4.33948 13.247L4.17147 13.17C3.98947 13.086 3.89707 13.044 3.80047 13.044C3.70246 13.044 3.61146 13.086 3.42806 13.17L3.26145 13.247C2.61744 13.5437 2.29543 13.6921 2.07983 13.5297C1.86563 13.3674 1.90063 13.0006 1.97203 12.2686L1.99023 12.0797C2.00983 11.8697 2.02103 11.7661 1.99023 11.671C1.96083 11.573 1.89363 11.496 1.76062 11.3393L1.63882 11.1979C1.16981 10.6492 0.934607 10.3749 1.01581 10.1118C1.09841 9.84722 1.44282 9.77024 2.13163 9.61348L2.30944 9.57429C2.50544 9.5295 2.60344 9.5071 2.68184 9.44832C2.76024 9.38813 2.81065 9.29715 2.91145 9.1166L3.00245 8.95284Z" stroke="#B5C97F" stroke-width="2"/>
<path d="M3.78906 28.1444H6.95313C8.36716 28.1444 9.79939 28.2928 11.1756 28.5755C13.6327 29.0801 16.1608 29.1361 18.6378 28.7407M17.3357 24.126C17.5037 24.1064 17.6647 24.084 17.8188 24.0602C19.0942 23.8573 20.1652 23.1742 21.1452 22.4338L23.6765 20.5233C24.128 20.1949 24.6721 20.018 25.2305 20.018C25.7889 20.018 26.333 20.1949 26.7845 20.5233C27.5867 21.1293 27.8332 22.1273 27.3249 22.9419C26.7327 23.8909 25.8983 25.1044 25.0975 25.8462M17.3357 24.126C17.2844 24.1319 17.2331 24.1375 17.1817 24.1428M17.3357 24.126C17.5598 24.0654 17.7653 23.95 17.9336 23.7901C18.1445 23.6076 18.3168 23.3848 18.4402 23.1347C18.5636 22.8846 18.6357 22.6123 18.6521 22.3339C18.6686 22.0555 18.6291 21.7766 18.5359 21.5137C18.4428 21.2508 18.298 21.0092 18.11 20.8032C17.9275 20.6007 17.715 20.4275 17.4799 20.2895C13.5641 17.9535 7.46974 19.7325 3.78906 22.3428M17.3357 24.126C17.2851 24.137 17.2335 24.1426 17.1817 24.1428M17.1817 24.1428C16.3374 24.2276 15.4868 24.2295 14.6421 24.1484" stroke="#B5C97F" stroke-width="2" stroke-linecap="round"/>
</svg>
