<svg width="28" height="30" viewBox="0 0 28 30" fill="none" xmlns="http://www.w3.org/2000/svg">
<path d="M13.9201 26.0135H9.96748C5.67115 26.0135 2.06224 22.9202 1.37483 18.7957L0 11.2342C0 10.7186 -3.32906e-07 10.3749 0.343706 10.0312C0.687412 9.68748 1.03112 9.51562 1.54668 9.51562H22.3409C22.8565 9.51562 23.2002 9.68748 23.5439 10.0312C23.8876 10.3749 23.8876 10.8905 23.8876 11.2342L22.5128 18.7957C21.8254 23.092 18.2164 26.0135 13.9201 26.0135ZM1.89039 11.406L3.09336 18.6238C3.60892 22.0609 6.53042 24.4668 9.96748 24.4668H13.9201C17.3572 24.4668 20.2787 22.0609 20.7942 18.6238L21.9972 11.406H1.89039Z" fill="#B5C97F"/>
<path d="M22.164 12.4356C23.0233 11.5763 24.9136 10.8889 26.4603 12.4356C27.4914 13.4667 27.6633 15.5289 26.6322 17.0756C25.9448 18.2786 24.7418 18.966 23.367 18.966C22.8514 18.966 22.3359 18.7941 21.6484 18.6223L22.164 16.9038C23.8825 17.4193 24.7418 16.7319 25.0855 16.0445C25.6011 15.1852 25.6011 13.9823 25.0855 13.4667C24.2262 12.6074 23.5388 13.2948 23.1951 13.4667L22.164 12.4356Z" fill="#B5C97F"/>
<path d="M8.24985 8.48466C7.90614 8.48466 7.73429 8.3128 7.56243 8.14095C7.56243 7.96909 7.04688 7.28168 7.04688 6.25056C7.04688 5.21945 7.56243 4.36018 7.56243 4.36018C7.56243 4.36018 7.90614 3.84462 7.90614 3.32906C7.90614 2.8135 7.56243 2.29794 7.56243 2.29794C7.39058 1.95423 7.39058 1.43868 7.90614 1.09497C8.24985 0.923116 8.7654 0.923115 9.10911 1.43867C9.10911 1.61053 9.62467 2.29794 9.62467 3.32906C9.62467 4.36018 9.10911 5.21944 9.10911 5.21944C9.10911 5.21944 8.76541 5.735 8.76541 6.25056C8.76541 6.76612 9.10911 7.28168 9.10911 7.28168C9.28096 7.62539 9.28097 8.14095 8.76541 8.48466C8.4217 8.48466 8.4217 8.48466 8.24985 8.48466Z" fill="#B5C97F"/>
<path d="M12.0311 8.48466C11.6874 8.48466 11.5155 8.3128 11.3437 8.14095C11.3437 8.14095 10.8281 7.28168 10.8281 6.25056C10.8281 5.21945 11.3437 4.36018 11.3437 4.36018C11.3437 4.36018 11.6874 3.84462 11.6874 3.32906C11.6874 2.8135 11.3437 2.29794 11.3437 2.29794C11.1718 1.95423 11.1718 1.43868 11.6874 1.09497C12.0311 0.923116 12.5467 0.923115 12.8904 1.43867C12.8904 1.61053 13.4059 2.29794 13.4059 3.32906C13.4059 4.36018 12.8904 5.21944 12.8904 5.21944C12.8904 5.21944 12.5467 5.735 12.5467 6.25056C12.5467 6.76612 12.8904 7.28168 12.8904 7.28168C13.0622 7.62539 13.0622 8.14095 12.5467 8.48466C12.3748 8.48466 12.203 8.48466 12.0311 8.48466Z" fill="#B5C97F"/>
<path d="M15.8123 8.49038C15.4686 8.49038 15.2968 8.31852 15.1249 8.14667C15.1249 8.14667 14.6094 7.28741 14.6094 6.25629C14.6094 5.22517 15.1249 4.3659 15.1249 4.3659C15.1249 4.3659 15.4686 3.85034 15.4686 3.33478C15.4686 2.81922 15.1249 2.30366 15.1249 2.30366C14.9531 1.95996 14.9531 1.4444 15.4686 1.10069C15.9842 0.756985 16.3279 0.928838 16.6716 1.4444C16.6716 1.61625 17.1872 2.30366 17.1872 3.33478C17.1872 4.3659 16.6716 5.22517 16.6716 5.22517C16.6716 5.22517 16.3279 5.74073 16.3279 6.25629C16.3279 6.77185 16.6716 7.28741 16.6716 7.28741C16.8435 7.63111 16.8435 8.14667 16.3279 8.49038C16.1561 8.49038 15.9842 8.49038 15.8123 8.49038Z" fill="#B5C97F"/>
<path d="M23.2002 29.4607H0.859266C0.343706 29.4607 0 29.117 0 28.6015C0 28.0859 0.343706 27.7422 0.859266 27.7422H23.2002C23.7157 27.7422 24.0594 28.0859 24.0594 28.6015C24.0594 29.117 23.7157 29.4607 23.2002 29.4607Z" fill="#B5C97F"/>
</svg>
