<svg width="31" height="33" viewBox="0 0 31 33" fill="none" xmlns="http://www.w3.org/2000/svg">
<path d="M30.3452 17.6761L26.4528 11.9353C26.248 11.6334 25.8716 11.4478 25.4644 11.4478H22.7153V8.15575C22.7153 6.03244 20.7008 4.305 18.2246 4.305C15.7485 4.305 13.734 6.03244 13.734 8.15575C13.734 10.0814 11.9071 11.648 9.66137 11.648C7.60015 11.648 5.89286 10.3278 5.62617 8.62187L7.93404 7.13763C8.22187 6.9525 8.39133 6.66194 8.39133 6.35337V1.48031C8.3914 0.938938 7.87959 0.5 7.24825 0.5H1.64322C1.01188 0.5 0.5 0.938938 0.5 1.48031V6.35331C0.5 6.66187 0.669388 6.95244 0.957289 7.13756L3.33112 8.66425C3.63134 11.4333 6.35518 13.6086 9.66152 13.6086C13.1679 13.6086 16.0205 11.1624 16.0205 8.15575C16.0205 7.1135 17.0093 6.26562 18.2247 6.26562C19.4402 6.26562 20.4289 7.1135 20.4289 8.15575V11.4478H17.6797C17.2725 11.4478 16.8961 11.6335 16.6914 11.9353L12.799 17.6761C12.6975 17.8258 12.6441 17.9958 12.6441 18.1689V31.5197C12.6441 32.0611 13.156 32.5 13.7873 32.5H29.3568C29.9881 32.5 30.5 32.0611 30.5 31.5197V18.1688C30.5001 17.9957 30.4466 17.8258 30.3452 17.6761ZM4.4457 6.93038L2.78644 5.86312V2.46063H6.10503V5.86312L4.4457 6.93038ZM28.2136 30.5393H14.9305V23.0876H28.2136V30.5393ZM28.2136 21.127H14.9305V18.4331L18.3375 13.4082H20.4289V15.3651C20.4289 15.9065 20.9408 16.3454 21.5722 16.3454C22.2035 16.3454 22.7154 15.9065 22.7154 15.3651V13.4082H24.8068L28.2137 18.4331L28.2136 21.127Z" fill="#B5C97F"/>
</svg>
