<svg width="1336" height="718" viewBox="0 0 1336 718" fill="none" xmlns="http://www.w3.org/2000/svg">
<path d="M387 68.5C400.807 68.5 412 57.3071 412 43.5V25C412 11.1929 423.193 0 437 0H1311C1324.81 0 1336 11.1929 1336 25V693C1336 706.807 1324.81 718 1311 718H25C11.1929 718 0 706.807 0 693V93.5C0 79.6929 11.1929 68.5 25 68.5H207H387Z" fill="#C4C4C4"/>
<path d="M387 68.5C400.807 68.5 412 57.3071 412 43.5V25C412 11.1929 423.193 0 437 0H1311C1324.81 0 1336 11.1929 1336 25V693C1336 706.807 1324.81 718 1311 718H25C11.1929 718 0 706.807 0 693V93.5C0 79.6929 11.1929 68.5 25 68.5H207H387Z" fill="#C4C4C4"/>
</svg>
