<svg width="390" height="390" viewBox="0 0 390 390" fill="none" xmlns="http://www.w3.org/2000/svg">
<g clip-path="url(#clip0_81_663)">
<path d="M194.89 382.89C298.719 382.89 382.89 298.72 382.89 194.89C382.89 91.0605 298.719 6.89001 194.89 6.89001C91.0604 6.89001 6.88989 91.0605 6.88989 194.89C6.88989 298.72 91.0604 382.89 194.89 382.89Z" fill="#F7F7F9"/>
<path d="M222.59 44.22C213.67 33.12 206.27 26.97 201.8 24.62C200.17 23.76 198.2 24.82 197.99 26.65L196.6 39.05C196.6 39.05 196.6 39.11 196.59 39.14C194.69 48.76 191.35 57.59 185.74 65.59C178.76 75.55 170.9 84.82 163.09 94.11C153.01 106.11 145.65 119.3 142.95 134.95C140.53 148.97 141.44 162.51 147.44 175.56C149.34 179.69 149.29 179.61 144.95 180.04C129.85 181.54 114.94 184.01 101.06 190.53C92.38 194.61 86.0099 200.89 84.38 210.83C83.9399 213.52 83.91 216.3 83.96 219.04C84 221.17 83.58 222.12 81.11 222.11C58.4 221.99 35.68 221.99 12.97 221.96C12.53 221.96 12.14 221.67 12.02 221.25C10.77 216.95 10.23 212.51 10.13 208.07C9.92995 198.96 9.69995 189.83 10.12 180.74C10.8 165.93 13.18 151.42 18.02 137.27C21.53 127.02 25.54 117.01 30.48 107.43C34.45 99.73 39.24 92.49 44.34 85.38C51.57 75.3 59.3899 65.84 68.3799 57.38C83.1299 43.48 99.4 31.82 117.83 23.01C133.84 15.36 150.42 9.94001 167.83 7.24001C184.72 4.62001 201.65 4.03001 218.74 6.62001C239.14 9.70001 258.55 15.4 276.75 25.08C304.69 39.94 328.32 59.63 346.27 86.01C356.21 100.61 363.68 116.23 369.91 132.7C375.08 146.37 377.58 160.39 379.07 174.79C380.21 185.76 379.63 196.72 379.61 207.67C379.61 212.18 378.68 216.7 378.09 221.21C378.02 221.72 377.58 222.09 377.07 222.07C376 222.02 374.92 221.94 373.87 222.07C370.78 222.45 369.33 221.54 368.75 218.12C367.55 210.96 363.92 204.83 358.84 199.7C342.52 183.21 317.54 181.12 298.71 194.69C296.94 195.97 295.79 196.03 294.2 194.87C290.53 192.21 286.58 189.94 282.31 188.43C269.4 183.87 255.98 181.69 242.48 179.99C240.06 179.69 239 179.49 240.63 176.8C254.16 154.46 256.28 130.23 251.96 105.09C251.42 100.82 243.64 70.41 222.59 44.23V44.22Z" fill="#B5C97F"/>
<path d="M100.39 216.65C118.52 225.46 137.99 227.29 157.36 229.17C185.35 231.89 213.56 231.63 241.5 228.45C257.54 226.62 273.55 224.33 288.23 216.85C290.64 215.62 290.86 216.68 290.82 218.75C290.46 238.01 285.17 255.84 275.3 272.35C267.74 284.99 257.68 295.25 245.4 303.31C233.78 310.94 221.01 315.64 207.26 317.71C188.92 320.47 171.63 317.24 154.94 309.37C148.45 306.31 141.67 303.32 136.71 298.47C130.38 292.28 123.7 286.16 118.85 278.53C115.27 272.9 110.5 267.76 108.2 261.66C104.94 253.03 101.38 244.34 100.35 234.95C99.7199 229.17 98.71 223.44 98.98 217.51C99.01 216.79 99.76 216.35 100.4 216.66L100.39 216.65Z" fill="#3F3935"/>
<path d="M173.99 194.64C173.34 194.64 172.86 194.02 173.04 193.39C175.93 183.34 182.36 175.8 190.52 169.51C196.04 165.25 201.9 161.42 207.03 156.67C213.03 151.1 218.23 144.96 220.46 136.82C220.66 136.1 220.94 135.39 220.95 134.45C220.96 133.51 219.8 133.1 219.21 133.8C208.15 147.03 193.37 154.97 179.58 165.02C178.86 165.55 177.85 164.92 178.02 164.04C179.45 156.44 182.36 149.92 186.81 144.13C192.66 136.53 199.1 129.37 204.81 121.68C212.68 111.08 217.14 99.24 215.86 85.73C215.65 83.49 215.19 81.3 214.2 79.26C213.77 78.38 213.28 77.29 212.06 77.56C211.05 77.78 211.03 78.89 210.93 79.71C210.65 81.93 210.59 84.19 210.25 86.4C209.16 93.61 206.18 100.03 201.99 106.37C201.59 106.97 200.71 106.95 200.32 106.34C194.69 97.44 193.2 88.26 196.92 78.26C198.02 75.31 199.67 72.68 201.31 70.03C204.08 65.58 206.83 61.11 208.07 55.95C208.59 53.8 209.45 53.78 210.68 55.25C213.01 58.01 215.44 60.72 217.49 63.68C233.32 86.5 241.81 111.54 237.65 139.46C233.89 164.67 220.54 183.17 196.09 192.58C194.42 193.22 192.77 193.95 191.12 194.64C191 194.69 190.86 194.72 190.73 194.72C185.15 194.69 179.56 194.67 173.98 194.64H173.99Z" fill="#3F3935"/>
<path d="M172.62 194.65C172.68 194.64 172.74 194.63 172.81 194.63C178.86 194.66 184.91 194.69 190.96 194.72C200.55 195.02 210.14 195.29 219.74 195.62C235.19 196.14 250.64 196.84 265.82 200.1C268.52 200.68 272.63 200.72 272.71 203.99C272.81 207.7 268.5 207.66 265.76 208.2C239.21 213.43 212.33 214.56 185.35 214.16C165.62 213.86 146.02 212.09 126.53 209.06C124.16 208.69 121.83 208.1 119.53 207.41C117.97 206.94 116.37 206.28 116.28 204.37C116.17 202.04 118.4 201.5 120.12 200.91C125.22 199.17 130.54 198.38 135.88 197.91C147.3 196.89 158.74 196.03 170.17 195.08C171 195.01 171.81 194.81 172.63 194.66L172.62 194.65Z" fill="#B5C97F"/>
<path d="M308.75 280.94C308.68 280.94 308.61 280.94 308.55 280.96C305.83 281.55 302.73 280.68 299.66 280.18C295.39 279.49 291.68 274.2 292.31 270.35C293.11 265.5 297.21 262.14 302.32 262.92C308.08 263.8 313.65 264.05 319.27 262.2C332.62 257.81 341.63 243.56 338.78 231.15C336.19 219.87 325.97 214.52 315.3 218.85C311.27 220.49 307.54 219.43 305.52 216.07C303.61 212.9 304.62 208.71 308.36 205.9C314.71 201.14 322.03 199.92 329.67 201.28C345.44 204.07 357.01 217.69 357.18 234.01C357.38 253.8 347.03 270.07 328.17 277.8C322.14 280.27 315.74 281.12 308.74 280.93L308.75 280.94Z" fill="#3F3935"/>
<path d="M178.6 107.09C178.6 107.09 178.6 107 178.6 106.96C178.78 103.55 179.35 100.41 181.35 97.73C183.84 94.39 185.93 94.61 187.47 98.43C188.34 100.61 188.93 102.9 189.63 105.15C190.33 107.4 190.5 110.04 191.82 111.83C195.37 116.62 193 119.89 189.98 123.58C188.16 125.8 187.18 125.51 185.45 123.71C180.94 118.99 178.93 113.33 178.6 107.1V107.09Z" fill="#3F3935"/>
<path d="M168.54 115.32C170.17 115.36 170.97 116.38 171.59 117.44C174.54 122.47 176.96 127.83 181.08 132.1C181.77 132.81 181.54 133.38 180.91 133.99C180.38 134.51 179.92 135.1 179.42 135.65C175.4 140.03 174.05 140.11 169.6 136.23C165.18 132.38 163.09 124.15 165.22 118.74C165.86 117.12 166.59 115.48 168.53 115.32H168.54Z" fill="#3F3935"/>
<path d="M194.89 382.89C298.719 382.89 382.89 298.72 382.89 194.89C382.89 91.0605 298.719 6.89001 194.89 6.89001C91.0604 6.89001 6.88989 91.0605 6.88989 194.89C6.88989 298.72 91.0604 382.89 194.89 382.89Z" stroke="#3F3935" stroke-width="13.77" stroke-miterlimit="10"/>
<path d="M115.12 308.74H87.3998C83.0588 308.74 79.5398 312.259 79.5398 316.6V316.61C79.5398 320.951 83.0588 324.47 87.3998 324.47H115.12C119.461 324.47 122.98 320.951 122.98 316.61V316.6C122.98 312.259 119.461 308.74 115.12 308.74Z" fill="#3F3935"/>
<path d="M257.43 333.45H132.34C127.999 333.45 124.48 336.969 124.48 341.31V341.32C124.48 345.661 127.999 349.18 132.34 349.18H257.43C261.771 349.18 265.29 345.661 265.29 341.32V341.31C265.29 336.969 261.771 333.45 257.43 333.45Z" fill="#3F3935"/>
<path d="M301.63 308.74H276.15C271.809 308.74 268.29 312.259 268.29 316.6V316.61C268.29 320.951 271.809 324.47 276.15 324.47H301.63C305.971 324.47 309.49 320.951 309.49 316.61V316.6C309.49 312.259 305.971 308.74 301.63 308.74Z" fill="#3F3935"/>
<path d="M89.2798 264.54H48.8298C44.6932 264.54 41.3398 267.893 41.3398 272.03C41.3398 276.167 44.6932 279.52 48.8298 279.52H89.2798C93.4165 279.52 96.7698 276.167 96.7698 272.03C96.7698 267.893 93.4165 264.54 89.2798 264.54Z" fill="#3F3935"/>
<path d="M63.0599 236.83H42.8399C38.7032 236.83 35.3499 240.183 35.3499 244.32C35.3499 248.457 38.7032 251.81 42.8399 251.81H63.0599C67.1965 251.81 70.5499 248.457 70.5499 244.32C70.5499 240.183 67.1965 236.83 63.0599 236.83Z" fill="#3F3935"/>
</g>
<defs>
<clipPath id="clip0_81_663">
<rect width="389.77" height="389.77" fill="white"/>
</clipPath>
</defs>
</svg>
